<svg width="42" height="42" viewBox="0 0 42 42" fill="none" xmlns="http://www.w3.org/2000/svg">
<path d="M16.6666 0.666626C25.5032 0.666626 32.6666 7.83007 32.6666 16.6666C32.6666 20.1212 31.5718 23.32 29.7103 25.9351L41.7712 38L38 41.7712L25.9351 29.7103C23.32 31.5718 20.1212 32.6666 16.6666 32.6666C7.83007 32.6666 0.666626 25.5032 0.666626 16.6666C0.666626 7.83007 7.83007 0.666626 16.6666 0.666626ZM16.6666 5.99996C10.7756 5.99996 5.99996 10.7756 5.99996 16.6666C5.99996 22.5577 10.7756 27.3333 16.6666 27.3333C22.5577 27.3333 27.3333 22.5577 27.3333 16.6666C27.3333 10.7756 22.5577 5.99996 16.6666 5.99996Z" fill="#fff"/>
</svg>
