<svg width="19" height="20" viewBox="0 0 19 20" fill="none" xmlns="http://www.w3.org/2000/svg">
<path fill-rule="evenodd" clip-rule="evenodd" d="M0.177368 17.2592C0.632478 17.4687 1.09594 17.6633 1.56712 17.8421C3.99989 18.7654 6.63836 19.2709 9.39489 19.2709C12.1524 19.2709 14.7918 18.765 17.2253 17.8411C17.6964 17.6622 18.1598 17.4676 18.6149 17.258L17.9025 15.9345L16.9658 14.1943L16.9659 14.1942L16.1891 12.7511L16.189 12.7511L10.2482 1.714L9.39646 0.131592L8.54471 1.714L0.889794 15.9356L0.177368 17.2592ZM9.39646 3.29641L14.778 13.2944C13.0871 13.8597 11.2776 14.1659 9.39659 14.1659C7.51549 14.1659 5.70591 13.8596 4.01499 13.2943L9.39646 3.29641ZM9.39659 15.7995C7.23511 15.7995 5.15977 15.4307 3.23007 14.7526L2.28467 16.509C4.499 17.3249 6.8935 17.7709 9.39489 17.7709C11.8973 17.7709 14.2927 17.3246 16.5077 16.508L15.5629 14.7527C13.6332 15.4307 11.558 15.7995 9.39659 15.7995ZM10.9999 12C11.5522 12 11.9999 11.5523 11.9999 11C11.9999 10.4477 11.5522 10 10.9999 10C10.4476 10 9.99988 10.4477 9.99988 11C9.99988 11.5523 10.4476 12 10.9999 12ZM8.68665 12C8.68665 12.5523 8.23893 13 7.68665 13C7.13436 13 6.68665 12.5523 6.68665 12C6.68665 11.4477 7.13436 11 7.68665 11C8.23893 11 8.68665 11.4477 8.68665 12ZM9.32556 9C9.87785 9 10.3256 8.55229 10.3256 8C10.3256 7.44771 9.87785 7 9.32556 7C8.77328 7 8.32556 7.44771 8.32556 8C8.32556 8.55229 8.77328 9 9.32556 9Z" fill="#7A1D47"/>
</svg>
